<?xml version="1.0" encoding="UTF-8" standalone="no"?>
<!-- Created with Inkscape (http://www.inkscape.org/) -->

<svg
   xmlns:dc="http://purl.org/dc/elements/1.1/"
   xmlns:cc="http://creativecommons.org/ns#"
   xmlns:rdf="http://www.w3.org/1999/02/22-rdf-syntax-ns#"
   xmlns:svg="http://www.w3.org/2000/svg"
   xmlns="http://www.w3.org/2000/svg"
   xmlns:sodipodi="http://sodipodi.sourceforge.net/DTD/sodipodi-0.dtd"
   xmlns:inkscape="http://www.inkscape.org/namespaces/inkscape"
   width="210mm"
   height="297mm"
   viewBox="0 0 210 297"
   version="1.1"
   id="svg8"
   sodipodi:docname="entertainment.svg"
   inkscape:version="0.92.2 (5c3e80d, 2017-08-06)">
  <defs
     id="defs2" />
  <sodipodi:namedview
     id="base"
     pagecolor="#ffffff"
     bordercolor="#666666"
     borderopacity="1.0"
     inkscape:pageopacity="0.0"
     inkscape:pageshadow="2"
     inkscape:zoom="0.98994952"
     inkscape:cx="1507.3365"
     inkscape:cy="674.10291"
     inkscape:document-units="mm"
     inkscape:current-layer="layer1"
     showgrid="false"
     showborder="false"
     inkscape:window-width="1538"
     inkscape:window-height="877"
     inkscape:window-x="-32000"
     inkscape:window-y="-32000"
     inkscape:window-maximized="0" />
  <metadata
     id="metadata5">
    <rdf:RDF>
      <cc:Work
         rdf:about="">
        <dc:format>image/svg+xml</dc:format>
        <dc:type
           rdf:resource="http://purl.org/dc/dcmitype/StillImage" />
        <dc:title />
      </cc:Work>
    </rdf:RDF>
  </metadata>
  <g
     inkscape:label="Layer 1"
     inkscape:groupmode="layer"
     id="layer1">
    <rect
       y="75.139709"
       x="339.51782"
       height="74.074852"
       width="74.074852"
       id="rect4599"
       style="opacity:1;fill:none;fill-opacity:1;fill-rule:nonzero;stroke:none;stroke-width:0.74074858;stroke-linecap:butt;stroke-linejoin:miter;stroke-miterlimit:4;stroke-dasharray:none;stroke-dashoffset:0;stroke-opacity:1;paint-order:stroke fill markers"
       inkscape:export-xdpi="25"
       inkscape:export-ydpi="25" />
    <path
       style="opacity:1;fill:#ffffff;fill-opacity:1;fill-rule:nonzero;stroke:#000000;stroke-width:1.05721819;stroke-linecap:butt;stroke-linejoin:round;stroke-miterlimit:4;stroke-dasharray:none;stroke-dashoffset:0;stroke-opacity:1;paint-order:fill markers stroke"
       d="m 359.51639,96.321387 h 30.95034 v 7.801683 33.07825 7.81423 h -30.85301 z"
       id="path4601"
       inkscape:connector-curvature="0"
       sodipodi:nodetypes="ccccccc"
       inkscape:export-xdpi="25"
       inkscape:export-ydpi="25" />
    <path
       style="opacity:1;fill:none;fill-opacity:1;fill-rule:nonzero;stroke:#000000;stroke-width:1.05721819;stroke-linecap:butt;stroke-linejoin:round;stroke-miterlimit:4;stroke-dasharray:none;stroke-dashoffset:0;stroke-opacity:1;paint-order:fill markers stroke"
       d="m 390.46673,104.12307 c 0,0 9.34056,-0.98235 13.72995,1.11278 2.56284,1.22327 3.01279,4.40438 3.11305,7.24241 l 0.53173,15.05287 c 0.1072,3.03334 -0.41241,5.90048 -3.01519,7.73574 -4.44699,3.13566 -14.35954,1.93445 -14.35954,1.93445"
       id="path4607"
       inkscape:connector-curvature="0"
       sodipodi:nodetypes="cssssc"
       inkscape:export-xdpi="25"
       inkscape:export-ydpi="25" />
    <path
       style="opacity:1;fill:none;fill-opacity:1;fill-rule:nonzero;stroke:#000000;stroke-width:1.05721819;stroke-linecap:butt;stroke-linejoin:round;stroke-miterlimit:4;stroke-dasharray:none;stroke-dashoffset:0;stroke-opacity:1;paint-order:fill markers stroke"
       d="m 370.51113,134.75976 v -28.55857 c 0,-2.24763 -0.8618,-3.35623 -2.31299,-3.35623 -1.4512,0 -2.36192,1.01214 -2.36192,3.43231 v 28.39591 c 0,2.51244 1.22631,3.31141 2.25089,3.31141 1.0246,0 2.42402,-0.59068 2.42402,-3.22483 z"
       id="path4611"
       inkscape:connector-curvature="0"
       sodipodi:nodetypes="cczcczc"
       inkscape:export-xdpi="25"
       inkscape:export-ydpi="25" />
    <path
       sodipodi:nodetypes="cczcczc"
       inkscape:connector-curvature="0"
       id="path4613"
       d="m 383.47054,134.84633 v -28.55855 c 0,-2.24763 -0.8618,-3.35624 -2.313,-3.35624 -1.45121,0 -2.36193,1.01212 -2.36193,3.43231 v 28.39591 c 0,2.51244 1.22632,3.31141 2.25091,3.31141 1.02459,0 2.42402,-0.59068 2.42402,-3.22484 z"
       style="opacity:1;fill:none;fill-opacity:1;fill-rule:nonzero;stroke:#000000;stroke-width:1.05721819;stroke-linecap:butt;stroke-linejoin:round;stroke-miterlimit:4;stroke-dasharray:none;stroke-dashoffset:0;stroke-opacity:1;paint-order:fill markers stroke"
       inkscape:export-xdpi="25"
       inkscape:export-ydpi="25" />
    <path
       sodipodi:nodetypes="cssssc"
       inkscape:connector-curvature="0"
       id="path4615"
       d="m 390.28148,106.67036 c 0,0 7.8884,-0.82965 11.59539,0.93977 2.16439,1.03309 2.54439,3.71963 2.62905,6.11645 l 0.44908,12.71263 c 0.0904,2.56176 -0.3483,4.98315 -2.54642,6.53309 -3.75564,2.64817 -12.1271,1.63371 -12.1271,1.63371"
       style="opacity:1;fill:none;fill-opacity:1;fill-rule:nonzero;stroke:#000000;stroke-width:1.05721819;stroke-linecap:butt;stroke-linejoin:round;stroke-miterlimit:4;stroke-dasharray:none;stroke-dashoffset:0;stroke-opacity:1;paint-order:fill markers stroke"
       inkscape:export-xdpi="25"
       inkscape:export-ydpi="25" />
    <path
       style="opacity:1;fill:none;fill-opacity:1;fill-rule:nonzero;stroke:#000000;stroke-width:1.05721819;stroke-linecap:butt;stroke-linejoin:round;stroke-miterlimit:4;stroke-dasharray:none;stroke-dashoffset:0;stroke-opacity:1;paint-order:fill markers stroke"
       d="m 359.51639,96.321387 c -2.06685,-2.045131 -4.09696,-5.753602 -3.48392,-8.870646 0.48563,-2.469198 2.80933,-4.72117 5.2154,-5.458443 2.78055,-0.85202 5.61836,1.872213 8.52644,1.848482 2.37198,-0.01936 4.60692,-2.104908 6.92912,-1.62102 1.7434,0.363279 2.56001,2.743337 4.28302,3.193441 3.76104,0.9825 8.40566,-3.773946 11.56388,-1.507599 2.04029,1.464121 1.99147,4.932792 1.46919,7.389147 -0.42672,2.00695 -3.55279,5.026638 -3.55279,5.026638"
       id="path4617"
       inkscape:connector-curvature="0"
       sodipodi:nodetypes="caaaaaaac"
       inkscape:export-xdpi="25"
       inkscape:export-ydpi="25" />
  </g>
</svg>
