<?xml version="1.0" encoding="UTF-8" standalone="no"?>
<!-- Created with Inkscape (http://www.inkscape.org/) -->

<svg
   xmlns:dc="http://purl.org/dc/elements/1.1/"
   xmlns:cc="http://creativecommons.org/ns#"
   xmlns:rdf="http://www.w3.org/1999/02/22-rdf-syntax-ns#"
   xmlns:svg="http://www.w3.org/2000/svg"
   xmlns="http://www.w3.org/2000/svg"
   xmlns:sodipodi="http://sodipodi.sourceforge.net/DTD/sodipodi-0.dtd"
   xmlns:inkscape="http://www.inkscape.org/namespaces/inkscape"
   width="210mm"
   height="297mm"
   viewBox="0 0 210 297"
   version="1.1"
   id="svg8"
   sodipodi:docname="options.svg"
   inkscape:version="0.92.2 (5c3e80d, 2017-08-06)">
  <defs
     id="defs2" />
  <sodipodi:namedview
     id="base"
     pagecolor="#ffffff"
     bordercolor="#666666"
     borderopacity="1.0"
     inkscape:pageopacity="0.0"
     inkscape:pageshadow="2"
     inkscape:zoom="0.70710678"
     inkscape:cx="2132.3232"
     inkscape:cy="585.73473"
     inkscape:document-units="mm"
     inkscape:current-layer="layer1"
     showgrid="false"
     showborder="false"
     inkscape:window-width="1538"
     inkscape:window-height="877"
     inkscape:window-x="-8"
     inkscape:window-y="-8"
     inkscape:window-maximized="1" />
  <metadata
     id="metadata5">
    <rdf:RDF>
      <cc:Work
         rdf:about="">
        <dc:format>image/svg+xml</dc:format>
        <dc:type
           rdf:resource="http://purl.org/dc/dcmitype/StillImage" />
        <dc:title />
      </cc:Work>
    </rdf:RDF>
  </metadata>
  <g
     inkscape:label="Layer 1"
     inkscape:groupmode="layer"
     id="layer1">
    <rect
       style="opacity:1;fill:none;fill-opacity:1;fill-rule:nonzero;stroke:none;stroke-width:0.89309222;stroke-linecap:butt;stroke-linejoin:miter;stroke-miterlimit:4;stroke-dasharray:none;stroke-dashoffset:0;stroke-opacity:1;paint-order:stroke fill markers"
       id="rect4619"
       width="89.309219"
       height="89.309219"
       x="499.98541"
       y="65.518013"
       inkscape:export-xdpi="20.93"
       inkscape:export-ydpi="20.93" />
    <path
       style="opacity:1;fill:none;fill-opacity:1;fill-rule:nonzero;stroke:#000000;stroke-width:2;stroke-linecap:butt;stroke-linejoin:round;stroke-miterlimit:4;stroke-dasharray:none;stroke-dashoffset:0;stroke-opacity:1;paint-order:fill markers stroke"
       d="m 558.88078,110.17369 a 14.240762,13.961531 0 0 1 -14.24077,13.96153 14.240762,13.961531 0 0 1 -14.24076,-13.96153 14.240762,13.961531 0 0 1 14.24076,-13.96153 14.240762,13.961531 0 0 1 14.24077,13.96153 z"
       id="path4621"
       inkscape:connector-curvature="0" />
    <path
       sodipodi:nodetypes="cccccccccccccccccccccccccccccc"
       inkscape:connector-curvature="0"
       id="path4627"
       d="m 508.0743,96.664838 6.12088,-10.601675 11.43882,6.602635 c 3.38709,-3.530124 7.8119,-6.137233 12.88513,-7.337158 V 72.076219 h 12.24166 v 13.253969 c 5.04436,1.192993 9.44491,3.779644 12.82454,7.279145 l 11.52953,-6.656956 6.12108,10.601936 -11.49852,6.638357 c 0.64809,2.22977 0.99962,4.57223 1.00253,6.98097 0,2.38898 -0.35883,4.69173 -0.9834,6.88536 l 11.44929,6.61037 -6.1209,10.60167 v 0 l -11.435,-6.60235 c -3.42054,3.57101 -7.86487,6.18815 -12.87899,7.37884 l -0.0101,13.21058 h -12.24176 v 0 l -0.0109,-13.20651 c -4.99428,-1.17894 -9.42909,-3.76585 -12.84298,-7.30841 l -11.50007,6.6386 v 0 l -6.12089,-10.60167 11.47831,-6.6291 c -0.63976,-2.21805 -0.98208,-4.55852 -0.98205,-6.97738 0.003,-2.37947 0.34014,-4.69629 0.97295,-6.90176 z"
       style="opacity:1;fill:none;fill-opacity:1;fill-rule:nonzero;stroke:#000000;stroke-width:2;stroke-linecap:butt;stroke-linejoin:round;stroke-miterlimit:4;stroke-dasharray:none;stroke-dashoffset:0;stroke-opacity:1;paint-order:fill markers stroke" />
  </g>
</svg>
